<svg clip-rule="evenodd" fill-rule="evenodd" height="512" stroke-linejoin="round" stroke-miterlimit="2" viewBox="0 0 24 24" width="512" xmlns="http://www.w3.org/2000/svg"><g id="Icon"><path d="m11.991 1.25c-5.933 0-10.75 4.817-10.75 10.75s4.817 10.75 10.75 10.75 10.75-4.817 10.75-10.75-4.817-10.75-10.75-10.75zm0 1.5c5.105 0 9.25 4.145 9.25 9.25s-4.145 9.25-9.25 9.25-9.25-4.145-9.25-9.25 4.145-9.25 9.25-9.25z"/><path d="m15.391 15.549c-.776 1.033-2.01 1.701-3.4 1.701-1.389 0-2.624-.668-3.399-1.701-.249-.331-.72-.397-1.051-.149-.331.249-.397.72-.149 1.051 1.05 1.396 2.72 2.299 4.599 2.299 1.88 0 3.55-.903 4.599-2.299.249-.331.182-.802-.149-1.051-.331-.248-.801-.182-1.05.149z"/><circle cx="7.991" cy="10" r="1.5"/><path d="m17.335 10.829-1.658-.829s1.658-.829 1.658-.829c.371-.185.521-.636.336-1.006-.185-.371-.636-.521-1.006-.336l-3 1.5c-.254.127-.415.387-.415.671s.161.544.415.671l3 1.5c.37.185.821.035 1.006-.336.185-.37.035-.821-.336-1.006z"/></g></svg>